<svg xmlns="http://www.w3.org/2000/svg" viewBox="0 0 64 64" fill="none">
  <defs>
    <linearGradient id="g1" x1="0%" y1="0%" x2="100%" y2="100%">
      <stop offset="0%" style="stop-color:#FF3621"/>
      <stop offset="100%" style="stop-color:#FF6B35"/>
    </linearGradient>
    <linearGradient id="g2" x1="0%" y1="0%" x2="100%" y2="100%">
      <stop offset="0%" style="stop-color:#4F46E5"/>
      <stop offset="100%" style="stop-color:#818CF8"/>
    </linearGradient>
    <linearGradient id="g3" x1="0%" y1="0%" x2="100%" y2="100%">
      <stop offset="0%" style="stop-color:#14B8A6"/>
      <stop offset="100%" style="stop-color:#5EEAD4"/>
    </linearGradient>
    <filter id="shadow">
      <feDropShadow dx="0" dy="1" stdDeviation="1" flood-opacity="0.2"/>
    </filter>
  </defs>
  
  <!-- Gradient layers with shadow -->
  <path d="M8 42 L32 52 L56 42 L56 48 L32 58 L8 48 Z" fill="url(#g1)" filter="url(#shadow)"/>
  <path d="M8 32 L32 42 L56 32 L56 38 L32 48 L8 38 Z" fill="url(#g2)" filter="url(#shadow)"/>
  <path d="M8 22 L32 32 L56 22 L56 28 L32 38 L8 28 Z" fill="url(#g3)" filter="url(#shadow)"/>
  
  <!-- Glowing nodes -->
  <circle cx="32" cy="11" r="5" fill="#1E293B" filter="url(#shadow)"/>
  <circle cx="32" cy="11" r="2.5" fill="#FF3621"/>
  <circle cx="18" cy="15" r="3.5" fill="#1E293B"/>
  <circle cx="46" cy="15" r="3.5" fill="#1E293B"/>
  
  <line x1="27" y1="12" x2="21" y2="14" stroke="#1E293B" stroke-width="2" stroke-linecap="round"/>
  <line x1="37" y1="12" x2="43" y2="14" stroke="#1E293B" stroke-width="2" stroke-linecap="round"/>
</svg>
